<?xml version="1.0" encoding="UTF-8" standalone="no"?>
<!-- Created with Inkscape (http://www.inkscape.org/) -->

<svg
   xmlns:dc="http://purl.org/dc/elements/1.1/"
   xmlns:cc="http://creativecommons.org/ns#"
   xmlns:rdf="http://www.w3.org/1999/02/22-rdf-syntax-ns#"
   xmlns:svg="http://www.w3.org/2000/svg"
   xmlns="http://www.w3.org/2000/svg"
   xmlns:xlink="http://www.w3.org/1999/xlink"
   xmlns:sodipodi="http://sodipodi.sourceforge.net/DTD/sodipodi-0.dtd"
   xmlns:inkscape="http://www.inkscape.org/namespaces/inkscape"
   width="64"
   height="96"
   id="svg2"
   sodipodi:version="0.32"
   inkscape:version="0.48.4 r9939"
   sodipodi:docname="bsantos_Palm_Tree.svg"
   inkscape:output_extension="org.inkscape.output.svg.inkscape"
   version="1.0">
  <defs
     id="defs4">
    <linearGradient
       id="linearGradient3049">
      <stop
         style="stop-color:#638225;stop-opacity:1;"
         offset="0"
         id="stop3051" />
      <stop
         style="stop-color:#bad681;stop-opacity:1;"
         offset="1"
         id="stop3053" />
    </linearGradient>
    <linearGradient
       id="linearGradient2998">
      <stop
         style="stop-color:#be894f;stop-opacity:1;"
         offset="0"
         id="stop3000" />
      <stop
         style="stop-color:#553b1f;stop-opacity:1;"
         offset="1"
         id="stop3002" />
    </linearGradient>
    <filter
       inkscape:collect="always"
       id="filter3036"
       color-interpolation-filters="sRGB">
      <feGaussianBlur
         inkscape:collect="always"
         stdDeviation="1.5956014"
         id="feGaussianBlur3038" />
    </filter>
    <linearGradient
       inkscape:collect="always"
       xlink:href="#linearGradient2998"
       id="linearGradient3044"
       gradientUnits="userSpaceOnUse"
       gradientTransform="translate(-419.21331,-67.680221)"
       x1="783.04688"
       y1="975.63147"
       x2="794.70953"
       y2="556.5" />
    <linearGradient
       inkscape:collect="always"
       xlink:href="#linearGradient3049"
       id="linearGradient3055"
       x1="163.61842"
       y1="564.37665"
       x2="227.28433"
       y2="564.37665"
       gradientUnits="userSpaceOnUse"
       gradientTransform="matrix(0.11646116,0.01835647,-0.02021424,0.10575798,122.79879,221.87201)" />
    <linearGradient
       inkscape:collect="always"
       xlink:href="#linearGradient3049"
       id="linearGradient3059"
       gradientUnits="userSpaceOnUse"
       gradientTransform="matrix(0.05364628,0.07090699,-0.07808313,0.04871599,164.19408,240.93293)"
       x1="163.61842"
       y1="564.37665"
       x2="227.28433"
       y2="564.37665" />
    <linearGradient
       inkscape:collect="always"
       xlink:href="#linearGradient3049"
       id="linearGradient3063"
       gradientUnits="userSpaceOnUse"
       gradientTransform="matrix(0.10764629,0.04433982,-0.04882721,0.09775319,137.63791,222.78305)"
       x1="163.61842"
       y1="564.37665"
       x2="227.28433"
       y2="564.37665" />
    <linearGradient
       inkscape:collect="always"
       xlink:href="#linearGradient22096"
       id="linearGradient1429"
       gradientUnits="userSpaceOnUse"
       gradientTransform="matrix(-1.009703,0,0,1.069571,532.158,-423.3626)"
       x1="171.64322"
       y1="453.47787"
       x2="60.014729"
       y2="478.03018" />
    <linearGradient
       y2="478.03018"
       x2="60.014729"
       y1="453.47787"
       x1="171.64322"
       gradientTransform="matrix(0.978942,0.05700517,-0.05928305,1.01806,400.8396,-418.241)"
       gradientUnits="userSpaceOnUse"
       id="linearGradient22274"
       xlink:href="#linearGradient22096"
       inkscape:collect="always" />
    <linearGradient
       y2="478.03018"
       x2="60.014729"
       y1="453.47787"
       x1="171.64322"
       gradientTransform="matrix(1.198907,0,0,1.019784,286.0787,-401.0307)"
       gradientUnits="userSpaceOnUse"
       id="linearGradient22271"
       xlink:href="#linearGradient22096"
       inkscape:collect="always" />
    <linearGradient
       y2="478.03018"
       x2="60.014729"
       y1="453.47787"
       x1="171.64322"
       gradientTransform="scale(0.9806,1.019784)"
       gradientUnits="userSpaceOnUse"
       id="linearGradient22179"
       xlink:href="#linearGradient22096"
       inkscape:collect="always" />
    <linearGradient
       y2="478.03018"
       x2="60.014729"
       y1="453.47787"
       x1="171.64322"
       gradientTransform="scale(0.9806,1.019784)"
       gradientUnits="userSpaceOnUse"
       id="linearGradient22177"
       xlink:href="#linearGradient22096"
       inkscape:collect="always" />
    <linearGradient
       y2="478.03018"
       x2="60.014729"
       y1="453.47787"
       x1="171.64322"
       gradientTransform="scale(0.9806,1.019784)"
       gradientUnits="userSpaceOnUse"
       id="linearGradient22106"
       xlink:href="#linearGradient22096"
       inkscape:collect="always" />
    <linearGradient
       y2="478.03018"
       x2="60.014729"
       y1="453.47787"
       x1="171.64322"
       gradientTransform="scale(0.9806,1.019784)"
       gradientUnits="userSpaceOnUse"
       id="linearGradient22104"
       xlink:href="#linearGradient22096"
       inkscape:collect="always" />
    <radialGradient
       gradientUnits="userSpaceOnUse"
       r="69.566292"
       fy="344.65759"
       fx="505.75394"
       cy="344.65759"
       cx="505.75394"
       gradientTransform="scale(0.694068,1.440781)"
       id="radialGradient20368"
       xlink:href="#linearGradient20362"
       inkscape:collect="always" />
    <linearGradient
       id="linearGradient20362"
       inkscape:collect="always">
      <stop
         id="stop20364"
         offset="0"
         style="stop-color:#f9d922;stop-opacity:1;" />
      <stop
         id="stop20366"
         offset="1"
         style="stop-color:#f9d922;stop-opacity:0;" />
    </linearGradient>
    <linearGradient
       id="linearGradient22096"
       inkscape:collect="always">
      <stop
         id="stop22098"
         offset="0"
         style="stop-color:#f2308d;stop-opacity:1;" />
      <stop
         id="stop22100"
         offset="1"
         style="stop-color:#f2308d;stop-opacity:0;" />
    </linearGradient>
    <radialGradient
       inkscape:collect="always"
       xlink:href="#linearGradient20362"
       id="radialGradient3365"
       gradientUnits="userSpaceOnUse"
       gradientTransform="matrix(0.694068,0,0,1.440781,17.06123,62.07146)"
       cx="483.35611"
       cy="303.4617"
       fx="483.35611"
       fy="303.4617"
       r="69.566292" />
  </defs>
  <sodipodi:namedview
     id="base"
     pagecolor="#ffffff"
     bordercolor="#666666"
     borderopacity="1.0"
     gridtolerance="10000"
     guidetolerance="10"
     objecttolerance="10"
     inkscape:pageopacity="0.0"
     inkscape:pageshadow="2"
     inkscape:zoom="2.8"
     inkscape:cx="76.452759"
     inkscape:cy="52.07641"
     inkscape:document-units="px"
     inkscape:current-layer="layer1"
     showgrid="false"
     inkscape:window-width="1600"
     inkscape:window-height="841"
     inkscape:window-x="0"
     inkscape:window-y="27"
     inkscape:window-maximized="1" />
  <g
     inkscape:label="Layer 1"
     inkscape:groupmode="layer"
     id="layer1"
     transform="translate(-101.16472,-254.76913)">
    <path
       id="path20372"
       d="m 128.56253,327.36017 c 0.34087,-0.17375 1.67646,1.11969 2.39719,1.30338 2.04955,0.52236 1.59669,0.65461 2.23738,-0.65169"
       style="fill:none;stroke:#000000;stroke-width:0.15973857px;stroke-linecap:butt;stroke-linejoin:miter;stroke-opacity:1"
       inkscape:connector-curvature="0" />
    <path
       id="path20374"
       d="m 137.67184,327.52309 c 0.99813,0.25438 -1.84778,1.14046 -2.87661,1.14046 -0.94339,0 -1.1896,-0.56106 -1.59813,-0.97754"
       style="fill:none;stroke:#000000;stroke-width:0.15973857px;stroke-linecap:butt;stroke-linejoin:miter;stroke-opacity:1"
       inkscape:connector-curvature="0" />
    <path
       transform="matrix(0.15820636,0,0,0.16128562,119.77286,253.42802)"
       d="m 87.883269,460.91788 a 4.0406103,1.5152289 0 1 1 -8.08122,0 4.0406103,1.5152289 0 1 1 8.08122,0 z"
       sodipodi:ry="1.5152289"
       sodipodi:rx="4.0406103"
       sodipodi:cy="460.91788"
       sodipodi:cx="83.842659"
       id="path20391"
       style="fill:#121212;fill-opacity:1;stroke:#000000;stroke-width:2.50000072;stroke-linecap:round;stroke-linejoin:round;stroke-miterlimit:4;stroke-opacity:1;stroke-dasharray:60.000017, 2.5000007;stroke-dashoffset:0"
       sodipodi:type="arc" />
    <g
       id="g3040"
       transform="matrix(0.06244747,0,0,0.13334636,109.92545,229.55456)">
      <path
         sodipodi:nodetypes="ccccc"
         id="rect2956"
         d="m 352.85715,409.50504 45.71428,0 c 11.25998,161.6472 -3.67558,385.28173 15.62791,488.97573 -50.7643,7.77321 -56.98261,8.00604 -101.13055,0.59173 22.06304,-105.57517 26.18524,-320.98063 39.78836,-489.56746 z"
         style="fill:#e0c6aa;fill-opacity:1;fill-rule:nonzero;stroke:none;filter:url(#filter3036)"
         inkscape:connector-curvature="0" />
      <path
         d="m 401.31794,557.81978 c -19.64313,4.43044 -38.33747,4.7918 -56.40625,2.53125 -1.09602,21.82237 -2.15152,43.80061 -3.21875,65.75 20.31106,2.60879 40.21436,1.9071 59.6875,-2.1875 0.0467,-22.1753 0.0765,-44.32701 -0.0625,-66.09375 z m 0.0312,71.6875 c -20.91684,4.72278 -40.74997,4.85335 -59.90625,2.09375 -1.0867,22.11732 -2.2559,44.12332 -3.625,65.6875 21.68221,3.23138 42.89267,2.68021 63.625,-1.6875 -0.15774,-21.75009 -0.13974,-43.89546 -0.0937,-66.09375 z m 0.125,69.1875 c -22.38268,5.37434 -43.49497,5.44945 -63.875,2.3125 -1.45285,22.4207 -3.152,44.35842 -5.25,65.4375 24.08581,4.02533 47.61221,3.40255 70.53125,-1.90625 -0.81896,-21.17744 -1.2229,-43.26796 -1.40625,-65.84375 z m 1.53125,69.34375 c -25.00021,6.25656 -48.4433,5.8784 -71,1.75 -2.31778,22.71463 -5.13226,44.43095 -8.625,64.65625 28.90601,6.18039 57.00452,5.72878 84.25,-1.375 -2.23222,-20.16907 -3.68037,-42.02947 -4.625,-65.03125 z m -3.03125,-279.21875 c -17.70368,3.59713 -34.64606,3.93618 -51.0625,2.0625 -1.47326,21.4384 -2.71418,43.46124 -3.84375,65.71875 19.11191,2.31678 37.85011,1.62936 56.21875,-2 -0.16337,-22.5327 -0.53742,-44.59431 -1.3125,-65.78125 z m 8,347.40625 c -30.24816,8.34786 -58.1843,6.89634 -85,0.65625 -4.05825,22.99002 -6.04263,42.95091 -7.72537,63.15179 43.3986,6.26985 59.21842,6.51265 98.67442,-0.375 -1.37158,-18.90517 -2.70884,-39.77781 -5.94905,-63.43304 z"
         style="fill:url(#linearGradient3044);fill-opacity:1;fill-rule:nonzero;stroke:none"
         id="path2993"
         sodipodi:nodetypes="cccccccccccccccccccccccccccccc"
         inkscape:connector-curvature="0" />
    </g>
    <path
       style="fill:#3f553c;fill-opacity:1;fill-rule:nonzero;stroke:none"
       d="m 143.72163,258.72302 c -0.0351,-0.005 -0.0812,0.0269 -0.14037,0.0939 -0.90276,1.02335 -2.08392,3.19758 -3.31705,5.86005 0.42368,-1.94154 0.645,-3.51332 0.5393,-4.4009 -0.0807,-0.67778 -1.3501,1.74369 -2.23107,4.41433 -0.009,-0.63774 -0.0633,-1.15476 -0.17361,-1.51617 -0.20904,-0.68471 -1.55252,2.83385 -2.00945,5.86004 -0.10052,-0.9081 -0.26042,-1.60531 -0.49127,-2.01261 -0.24831,-0.43807 -0.883,1.62331 -1.18203,3.90448 -0.21868,-0.69376 -0.46478,-1.20974 -0.74245,-1.48935 -0.0888,-0.0895 -0.18385,-0.004 -0.27335,0.21134 -0.39019,-1.33134 -0.8435,-2.26565 -1.03058,-1.99584 -0.26167,0.37738 -0.41741,1.07391 -0.49128,1.99584 -0.71287,-2.52061 -1.97806,-5.04518 -2.16089,-4.51496 -0.12991,0.37676 -0.16761,0.96099 -0.12928,1.6973 -1.03009,-2.28329 -2.29546,-4.22838 -2.35666,-3.66631 -0.0391,0.35878 -0.003,0.8489 0.0997,1.44573 -1.29972,-2.23936 -2.74453,-4.04823 -2.70018,-3.42144 0.0522,0.73746 0.41264,1.904 0.97886,3.33087 -0.0145,-0.0211 -0.0261,-0.0426 -0.0406,-0.0637 -1.93739,-2.81125 -4.67721,-5.46778 -4.40673,-4.58539 0.3872,1.2632 1.64312,3.40247 3.30228,5.86676 -1.48772,-1.44653 -2.76493,-2.52461 -3.61996,-2.96525 -0.65291,-0.33647 0.7689,2.01364 2.64109,4.22313 -0.57496,-0.36627 -1.0679,-0.62826 -1.45537,-0.75809 -0.73407,-0.24594 1.62552,2.79937 4.06321,4.90406 -0.87033,-0.45643 -1.58813,-0.7473 -2.08701,-0.8151 -0.53658,-0.073 0.93584,1.60002 2.79992,3.15309 -0.74779,-0.24413 -1.35353,-0.36332 -1.76565,-0.32202 -0.33414,0.0335 0.32117,0.74594 1.38519,1.59667 0.20955,0.37529 0.50745,0.79894 0.88282,1.25789 -2.26388,-1.51913 -5.50833,-2.78626 -5.33758,-2.26419 0.13982,0.42749 0.61532,0.99528 1.32977,1.6537 -2.55668,-1.17566 -5.47861,-1.97722 -5.16027,-1.50276 0.22621,0.33716 0.6802,0.74815 1.31501,1.20757 -2.56943,-0.80261 -5.01266,-1.22085 -4.58773,-0.8084 0.27123,0.26328 0.69812,0.56174 1.25958,0.88555 -2.71088,-0.58958 -5.158,-0.79903 -4.60989,-0.41594 0.64488,0.45073 1.84744,0.9751 3.40201,1.52959 -0.0271,-0.004 -0.0541,-0.01 -0.0813,-0.0134 -3.60481,-0.53145 -7.60942,-0.41071 -6.7006,-0.0134 1.30103,0.56873 3.90263,1.12089 7.03674,1.61344 -2.17856,0.0616 -3.91398,0.22349 -4.84261,0.51657 -0.70911,0.2238 2.17417,0.80037 5.23785,0.97947 -0.68238,0.15094 -1.22535,0.31756 -1.58835,0.49645 -0.6877,0.3389 3.39136,0.73558 6.74124,0.45955 -0.95181,0.2931 -1.66495,0.5897 -2.05008,0.88554 -0.41423,0.31819 1.93981,0.41598 4.45476,0.16772 -0.69525,0.34947 -1.19562,0.68432 -1.43321,0.99288 -0.33475,0.43478 2.99752,0.19125 5.64417,-0.55346 -1.31373,0.78215 -2.21479,1.50852 -2.41207,2.08641 -0.12449,0.36465 1.6617,0.12575 3.51283,-0.45619 -1.18849,1.76169 -1.98273,3.84164 -1.50339,3.78034 0.57873,-0.074 1.36717,-0.61421 2.26802,-1.45578 -1.28898,2.27245 -2.14329,5.38555 -1.60313,5.14893 0.44231,-0.19376 0.98329,-0.70999 1.58465,-1.45579 -0.86875,2.47995 -1.27005,5.22846 -0.80525,4.86716 0.33029,-0.25673 0.69927,-0.73272 1.09706,-1.37528 -0.4612,2.43166 -0.52439,4.69016 -0.14405,4.24325 0.24277,-0.28527 0.4988,-0.71618 0.76092,-1.2713 -0.207,2.52437 -0.0406,4.75228 0.28812,4.19964 0.38674,-0.65018 0.76162,-1.81171 1.11554,-3.29397 -6e-5,0.0249 1e-5,0.0488 0,0.0738 -8.3e-4,3.31638 0.77003,6.88589 1.05644,6.00765 0.40999,-1.25727 0.59784,-3.67625 0.63163,-6.56448 0.41565,1.94299 0.86627,3.47453 1.33348,4.26004 0.35676,0.59982 0.52467,-2.07883 0.22902,-4.85375 0.27328,0.58752 0.53793,1.04833 0.79048,1.34509 0.47846,0.56222 0.25627,-3.15971 -0.57993,-6.11833 0.47094,0.80627 0.90961,1.39942 1.29283,1.6973 0.41218,0.32039 0.14416,-1.80386 -0.52821,-4.01851 0.49115,0.56727 0.93417,0.96011 1.30761,1.1237 0.52617,0.2305 -0.27398,-2.71455 -1.50708,-4.96779 0.52707,0.52309 1.02377,0.95358 1.47015,1.26794 0.003,0.002 0.005,0.005 0.008,0.007 1.05714,0.92296 2.00596,1.50571 2.07223,1.20421 0.11442,-0.52046 -0.18777,-1.3783 -0.76462,-2.42855 1.93565,1.85591 4.88781,3.61709 4.82044,3.07594 -0.0552,-0.44314 -0.41362,-1.07626 -0.98994,-1.83819 2.29021,1.56436 5.01273,2.81887 4.79089,2.30108 -0.15764,-0.36793 -0.52751,-0.84207 -1.06382,-1.3954 2.37476,1.19911 4.70116,1.99992 4.36241,1.52623 -0.21624,-0.30238 -0.58092,-0.66523 -1.07121,-1.0734 2.55515,1.0119 4.92783,1.60487 4.46214,1.14048 -0.5479,-0.54638 -1.63129,-1.25284 -3.05479,-2.04615 0.0259,0.009 0.0516,0.0185 0.0776,0.0268 3.44646,1.09694 7.40788,1.61588 6.5898,1.08011 -1.17114,-0.767 -3.62141,-1.72659 -6.61196,-2.71032 2.15673,0.28606 3.89765,0.40574 4.86846,0.26499 0.74134,-0.10748 -1.98649,-1.13736 -4.9682,-1.80128 0.70095,-0.04 1.26663,-0.11647 1.65854,-0.23481 0.74247,-0.22421 -3.19785,-1.26151 -6.54915,-1.52287 0.99364,-0.13709 1.75416,-0.31679 2.19043,-0.54676 0.46924,-0.24735 -1.82738,-0.71965 -4.35133,-0.87549 0.75194,-0.23341 1.30597,-0.48204 1.59943,-0.74803 0.41349,-0.37475 -2.91322,-0.66751 -5.66263,-0.35556 1.44435,-0.56094 2.472,-1.13292 2.77775,-1.67046 0.13112,-0.2305 -0.66372,-0.32375 -1.7915,-0.27506 1.14436,-0.9553 1.90424,-1.857 1.56249,-1.93546 -0.56662,-0.13008 -1.52334,0.10019 -2.70758,0.57024 2.13901,-1.66165 4.22591,-4.25014 3.62734,-4.21641 -0.49015,0.0276 -1.20512,0.32088 -2.07223,0.80504 1.83628,-1.99796 3.35474,-4.40485 2.77406,-4.22984 -0.41263,0.12436 -0.95636,0.4372 -1.59204,0.89562 1.43887,-2.09312 2.43672,-4.16425 1.89862,-3.88099 -0.34348,0.18082 -0.76004,0.49507 -1.23374,0.9191 1.24211,-2.26618 2.01551,-4.38719 1.48123,-3.98833 -0.62862,0.46928 -1.46021,1.41916 -2.40468,2.67006 0.0104,-0.0231 0.0229,-0.0473 0.0332,-0.0704 1.25125,-2.7824 2.00172,-5.97566 1.66221,-6.0177 z m -12.51468,15.21534 c 0.002,0.006 0.002,0.0109 0.004,0.0168 0.002,0.0772 0.008,0.15536 0.0111,0.23481 -0.0743,-0.0518 -0.14667,-0.10328 -0.22534,-0.15767 0.097,-0.006 0.16798,-0.035 0.21056,-0.0939 z m 5.28586,0.17778 c 0.0623,0.0678 0.13307,0.10364 0.21055,0.10063 -0.0817,0.0947 -0.15489,0.18273 -0.22163,0.26834 0.005,-0.11871 0.008,-0.241 0.0111,-0.36897 z m -9.98072,4.7766 c 0.11994,0.051 0.23297,0.0944 0.33983,0.13417 -0.12836,0.0228 -0.26446,0.0484 -0.40262,0.0738 0.0588,-0.0704 0.0835,-0.14009 0.0628,-0.20798 z m 13.83707,3.12961 c -0.0714,0.0598 -0.10696,0.12442 -0.0997,0.19454 -0.10823,-0.0693 -0.20906,-0.13164 -0.30659,-0.18784 0.13079,-0.002 0.2654,-0.004 0.40632,-0.007 z m -7.43936,3.95813 c 0.0454,0.11141 0.0906,0.22908 0.14036,0.34885 -0.0858,-0.0414 -0.16591,-0.0495 -0.2364,-0.0202 0.0363,-0.11568 0.0699,-0.22656 0.096,-0.32872 z"
       id="path2913"
       inkscape:connector-curvature="0" />
    <path
       style="fill:#649537;fill-opacity:1;fill-rule:nonzero;stroke:none"
       d="m 133.36794,278.17416 c 0.0627,-0.14449 0.0315,-0.28268 -0.10541,-0.40593 -0.0563,-0.0507 -0.11354,-0.0951 -0.17498,-0.13347 0.27518,-0.38947 0.0538,-1.43453 -0.62924,-2.69845 -0.89406,-1.65448 -2.87051,-3.53667 -3.00957,-3.13574 -0.13825,0.3986 0.0172,1.09109 0.37052,1.95776 -1.34169,-1.60217 -3.48735,-3.20881 -3.48524,-2.77998 0.002,0.35115 0.22239,0.87552 0.60229,1.51644 -1.64652,-1.40128 -3.66089,-2.59312 -3.53565,-2.17067 0.089,0.30019 0.33455,0.70081 0.70263,1.17535 -1.74688,-1.12188 -3.49375,-1.928 -3.27287,-1.53105 0.14099,0.25338 0.39373,0.56474 0.73936,0.92208 -1.90559,-0.98924 -3.70605,-1.63713 -3.38493,-1.23767 0.3778,0.46998 1.15992,1.10639 2.20008,1.83721 -0.0195,-0.009 -0.0389,-0.0169 -0.0585,-0.0253 -2.59539,-1.12455 -5.65037,-1.83706 -5.06006,-1.35453 0.84505,0.69076 2.67441,1.63048 4.92349,2.63125 -1.6616,-0.3903 -3.01223,-0.61712 -3.78538,-0.58182 -0.59039,0.0269 1.44854,1.04209 3.7206,1.79182 -0.55246,-0.0228 -1.00288,-0.008 -1.32075,0.055 -0.6022,0.11825 2.38491,1.23632 4.98397,1.69943 -0.79069,0.0307 -1.40287,0.11293 -1.7659,0.2593 -0.39046,0.15744 1.36477,0.70321 3.32601,1.01988 -0.61047,0.12473 -1.06883,0.27789 -1.32344,0.46346 -0.35875,0.26148 2.21766,0.74518 4.39916,0.71304 -1.18315,0.32772 -2.04033,0.69619 -2.32997,1.09341 -0.25555,0.35047 2.59908,0.56045 4.57758,0.14995 1.48387,-0.30785 2.50784,-0.79728 2.69617,-1.23075 z m -4.8576,-2.28671 c -0.10256,-0.009 -0.20864,-0.0169 -0.31926,-0.0254 0.0615,-0.0413 0.0946,-0.0897 0.0954,-0.14507 0.0783,0.0626 0.15271,0.11897 0.2238,0.17048 z"
       id="path2924"
       inkscape:connector-curvature="0" />
    <path
       style="fill:#649537;fill-opacity:1;fill-rule:nonzero;stroke:none"
       d="m 131.59188,280.14657 c -0.11841,-0.1121 -0.26976,-0.14397 -0.45024,-0.0824 -0.0742,0.0253 -0.14245,0.0541 -0.20657,0.0887 -0.27494,-0.38961 -1.41315,-0.64302 -2.96302,-0.6068 -2.02881,0.0474 -4.73718,0.893 -4.39398,1.17506 0.3412,0.28043 1.09907,0.44115 2.11382,0.51123 -2.16324,0.43862 -4.66647,1.53886 -4.23644,1.71608 0.35213,0.1451 0.96897,0.18182 1.76889,0.13578 -2.08941,0.77402 -4.12273,1.939 -3.64772,2.01195 0.33755,0.0518 0.84094,0.0164 1.46944,-0.0894 -1.85168,0.97344 -3.38738,2.07864 -2.89797,2.06201 0.3124,-0.0106 0.72946,-0.0893 1.2313,-0.22537 -1.78518,1.15977 -3.1849,2.37523 -2.65114,2.27692 0.62799,-0.11565 1.59125,-0.49552 2.75668,-1.04893 -0.0166,0.0126 -0.0331,0.0251 -0.0498,0.0377 -2.20845,1.67255 -4.19633,3.89632 -3.46712,3.61054 1.04392,-0.40912 2.74773,-1.52665 4.68779,-2.96506 -1.08397,1.20834 -1.8746,2.2283 -2.16191,2.88107 -0.2194,0.49847 1.64735,-0.76052 3.34578,-2.32267 -0.25332,0.44641 -0.42593,0.82453 -0.49612,1.1129 -0.13297,0.5463 2.23247,-1.45222 3.78053,-3.40383 -0.29927,0.66531 -0.47241,1.20483 -0.47743,1.56551 -0.006,0.38793 1.27325,-0.83282 2.4086,-2.31917 -0.12993,0.55583 -0.16795,0.99801 -0.0885,1.28557 0.11196,0.40516 1.67117,-1.51914 2.54935,-3.33283 -0.16577,1.11314 -0.15473,1.97429 0.12191,2.37907 0.24409,0.35715 1.64548,-1.911 2.06033,-3.71505 0.31114,-1.35303 0.24867,-2.40229 -0.10653,-2.7386 z m -4.31552,3.05445 c -0.0513,0.0811 -0.104,0.16512 -0.15865,0.25287 -0.0157,-0.068 -0.0503,-0.11543 -0.10535,-0.13932 0.0953,-0.0384 0.18278,-0.0763 0.264,-0.11355 z"
       id="path2926"
       inkscape:connector-curvature="0" />
    <path
       style="fill:url(#linearGradient3063);fill-opacity:1;fill-rule:nonzero;stroke:none"
       d="m 134.33367,288.4581 c -1.13669,2.27568 -3.14793,2.64286 -5.03948,1.86373 -1.89153,-0.77912 -2.95062,-2.41098 -1.81392,-4.68668 1.1367,-2.27568 3.5944,-3.49029 5.48593,-2.71115 1.89154,0.77913 2.50416,3.2584 1.36747,5.5341 z"
       id="path3061"
       sodipodi:nodetypes="csssc"
       inkscape:connector-curvature="0" />
    <path
       sodipodi:nodetypes="csssc"
       id="path3101"
       d="m 134.33367,288.4581 c -1.13669,2.27568 -3.14793,2.64286 -5.03948,1.86373 -1.89153,-0.77912 -2.95062,-2.41098 -1.81392,-4.68668 1.1367,-2.27568 3.5944,-3.49029 5.48593,-2.71115 1.89154,0.77913 2.50416,3.2584 1.36747,5.5341 z"
       style="opacity:0.35;fill:#000000;fill-opacity:1;fill-rule:nonzero;stroke:none"
       inkscape:connector-curvature="0" />
    <path
       style="fill:url(#linearGradient3059);fill-opacity:1;fill-rule:nonzero;stroke:none"
       d="m 131.97714,284.75628 c -1.81777,1.1341 -3.36532,0.62972 -4.30798,-0.61625 -0.94266,-1.24596 -0.92523,-2.76401 0.89255,-3.89811 1.81776,-1.13411 4.05812,-1.04333 5.00078,0.20264 0.94266,1.24596 0.23242,3.17761 -1.58535,4.31172 z"
       id="path3057"
       sodipodi:nodetypes="csssc"
       inkscape:connector-curvature="0" />
    <path
       style="fill:#649537;fill-opacity:1;fill-rule:nonzero;stroke:none"
       d="m 137.21562,279.70581 c 0.0416,0.15067 0.15567,0.24647 0.346,0.27428 0.0783,0.0114 0.15323,0.0172 0.22785,0.0159 0.026,0.46214 0.87621,1.19463 2.24197,1.86093 1.78781,0.87221 4.60157,1.35713 4.45751,0.95767 -0.14324,-0.39716 -0.71367,-0.87792 -1.55668,-1.39562 2.11815,0.59296 4.89276,0.76441 4.61604,0.4169 -0.2266,-0.28455 -0.74224,-0.59414 -1.46209,-0.91427 2.23715,0.26844 4.63901,0.17211 4.26629,-0.1051 -0.26484,-0.19698 -0.72139,-0.39281 -1.32492,-0.58393 2.13954,-0.0118 4.0766,-0.28021 3.64248,-0.48611 -0.2771,-0.13143 -0.68223,-0.25089 -1.19237,-0.35861 2.18352,-0.20352 4.06267,-0.62894 3.54546,-0.78386 -0.60853,-0.18229 -1.65246,-0.28604 -2.96671,-0.33012 0.0212,-0.004 0.0425,-0.007 0.0638,-0.0103 2.83104,-0.4583 5.77149,-1.49462 4.98217,-1.57472 -1.12995,-0.11466 -3.21975,0.0888 -5.68988,0.46459 1.60107,-0.56139 2.84452,-1.09124 3.4504,-1.5288 0.46267,-0.33413 -1.84585,-0.0812 -4.17369,0.51089 0.46372,-0.27366 0.82005,-0.52433 1.03844,-0.74316 0.41371,-0.41459 -2.73163,0.25613 -5.1415,1.25409 0.6231,-0.44306 1.06802,-0.83367 1.26928,-1.14465 0.21647,-0.33447 -1.56042,0.15005 -3.35788,0.92976 0.41629,-0.42421 0.69071,-0.79111 0.77868,-1.07663 0.12396,-0.40228 -2.2807,0.56696 -4.03352,1.74672 0.75167,-0.89209 1.21221,-1.64494 1.19294,-2.12102 -0.017,-0.42006 -2.4723,0.91883 -3.81747,2.29881 -1.00888,1.03499 -1.52746,1.97435 -1.40258,2.42633 z m 5.41537,-0.70982 c 0.0889,-0.0473 0.18047,-0.0966 0.27583,-0.14818 -0.0234,0.0661 -0.0194,0.12287 0.0154,0.16842 -0.10378,-0.01 -0.20046,-0.0159 -0.29128,-0.0203 z"
       id="path2928"
       inkscape:connector-curvature="0" />
    <path
       style="fill:#649537;fill-opacity:1;fill-rule:nonzero;stroke:none"
       d="m 135.52124,277.99508 c 0.17058,0.0115 0.30658,-0.0568 0.39545,-0.21213 0.0366,-0.0639 0.0661,-0.12668 0.0883,-0.1914 0.49132,0.12276 1.52423,-0.38 2.64996,-1.34805 1.4736,-1.26721 2.8647,-3.54058 2.40182,-3.5419 -0.4602,-9.6e-4 -1.14205,0.33939 -1.94816,0.90348 1.28547,-1.63974 2.33654,-3.97786 1.88631,-3.84849 -0.36868,0.10593 -0.85436,0.4532 -1.41523,0.97317 0.9836,-1.84428 1.63761,-3.9452 1.2307,-3.71099 -0.28915,0.16643 -0.63733,0.49848 -1.02678,0.95874 0.66001,-1.8482 0.98803,-3.6025 0.63637,-3.29294 -0.22447,0.19759 -0.47667,0.50932 -0.74958,0.91526 0.47335,-1.94636 0.61908,-3.70005 0.2946,-3.30285 -0.38178,0.46733 -0.81827,1.33471 -1.27732,2.45388 0.003,-0.0194 0.006,-0.0388 0.01,-0.0582 0.41047,-2.58465 0.25104,-5.44525 -0.0808,-4.78995 -0.47493,0.93811 -0.91888,2.80365 -1.30221,5.05124 -0.0838,-1.55669 -0.247,-2.79516 -0.51404,-3.45499 -0.20393,-0.50385 -0.66485,1.56582 -0.77739,3.75868 -0.14037,-0.48575 -0.29046,-0.87171 -0.45061,-1.12875 -0.30342,-0.48694 -0.59057,2.43543 -0.30453,4.82655 -0.26739,-0.6764 -0.53594,-1.1827 -0.7978,-1.45393 -0.28165,-0.29171 -0.33345,1.3924 -0.0831,3.187 -0.31269,-0.4922 -0.61002,-0.84405 -0.88086,-1.00962 -0.38161,-0.23326 -0.12394,2.14434 0.55863,4.02617 -0.69643,-0.92834 -1.33876,-1.56193 -1.84252,-1.69492 -0.44448,-0.11733 0.18372,2.4201 1.2037,4.0134 0.76498,1.19497 1.58407,1.9372 2.09582,1.97158 z m 0.95956,-4.89164 c -0.0215,-0.0915 -0.0443,-0.18594 -0.0682,-0.28436 0.0618,0.041 0.12237,0.0553 0.18094,0.0396 -0.0426,0.0865 -0.0797,0.16779 -0.1127,0.24475 z"
       id="path2930"
       inkscape:connector-curvature="0" />
    <path
       sodipodi:nodetypes="csssc"
       id="path3105"
       d="m 131.97714,284.75628 c -1.81777,1.1341 -3.36532,0.62972 -4.30798,-0.61625 -0.94266,-1.24596 -0.92523,-2.76401 0.89255,-3.89811 1.81776,-1.13411 4.05812,-1.04333 5.00078,0.20264 0.94266,1.24596 0.23242,3.17761 -1.58535,4.31172 z"
       style="opacity:0.2838428;fill:#000000;fill-opacity:1;fill-rule:nonzero;stroke:none"
       inkscape:connector-curvature="0" />
    <path
       id="path2940"
       d="m 132.97013,278.27422 c -0.0864,-0.18098 -0.25109,-0.27965 -0.49592,-0.27882 -0.10067,3.3e-4 -0.19591,0.007 -0.28913,0.0227 -0.13769,-0.57421 -1.3695,-1.33274 -3.23235,-1.91167 -2.43852,-0.75785 -6.07459,-0.83809 -5.80327,-0.36454 0.26975,0.47081 1.09382,0.96634 2.26785,1.45705 -2.78898,-0.34602 -6.30475,-0.0408 -5.87902,0.34279 0.34861,0.31409 1.06514,0.60538 2.0399,0.87161 -2.86431,0.0829 -5.85214,0.65384 -5.3221,0.93135 0.37665,0.19718 0.99325,0.357 1.79297,0.48336 -2.67834,0.41576 -5.04462,1.11522 -4.45384,1.29186 0.37711,0.11276 0.91192,0.18651 1.57564,0.22588 -2.68984,0.6643 -4.94788,1.5496 -4.26456,1.64679 0.80397,0.11434 2.13567,0.0487 3.79255,-0.14243 -0.0259,0.009 -0.0516,0.0166 -0.0776,0.0249 -3.44336,1.10492 -6.89242,2.95464 -5.88514,2.90707 1.44197,-0.0681 4.0144,-0.71476 7.02427,-1.64864 -1.87867,1.00357 -3.31638,1.90057 -3.97615,2.56243 -0.50382,0.50541 2.33144,-0.2443 5.11385,-1.42247 -0.51887,0.42982 -0.90841,0.81071 -1.13232,1.12587 -0.4242,0.59705 3.36472,-0.83295 6.15765,-2.53517 -0.68011,0.67199 -1.14884,1.24484 -1.33035,1.67224 -0.19523,0.45969 1.92123,-0.48051 3.99637,-1.79444 -0.42522,0.60961 -0.68569,1.12079 -0.73104,1.49505 -0.0639,0.52732 2.72902,-1.13792 4.6573,-2.94479 -0.73913,1.25876 -1.14512,2.28845 -1.01276,2.8814 0.11677,0.52319 2.88914,-1.61476 4.26109,-3.59611 1.02897,-1.48601 1.46528,-2.76031 1.20607,-3.30328 z m -6.62456,1.90451 c -0.10057,0.0759 -0.20419,0.15483 -0.31195,0.23737 0.0144,-0.0873 -0.004,-0.1576 -0.0576,-0.20815 0.1322,-0.008 0.25481,-0.0176 0.36959,-0.0292 z"
       style="fill:#96c769;fill-opacity:1;fill-rule:nonzero;stroke:none"
       inkscape:connector-curvature="0" />
    <path
       style="fill:url(#linearGradient3055);fill-opacity:1;fill-rule:nonzero;stroke:none"
       d="m 137.77171,286.19417 c -0.47059,2.46204 -2.31572,3.27633 -4.36215,2.95378 -2.04642,-0.32256 -3.52305,-1.66042 -3.05246,-4.12247 0.47059,-2.46204 2.51338,-4.19843 4.55981,-3.87588 2.04644,0.32256 3.32539,2.58253 2.8548,5.04457 z"
       id="path3046"
       sodipodi:nodetypes="csssc"
       inkscape:connector-curvature="0" />
    <path
       id="path2942"
       d="m 135.55371,278.14461 c -0.18716,0.10013 -0.27474,0.2607 -0.24372,0.48123 0.0127,0.0907 0.0319,0.17568 0.0604,0.25777 -0.61059,0.19472 -1.28802,1.39813 -1.69156,3.14814 -0.52825,2.29082 -0.1687,5.57751 0.31545,5.27475 0.48133,-0.30101 0.9215,-1.10462 1.31335,-2.22302 -0.035,2.556 0.73095,5.68687 1.09777,5.25602 0.30038,-0.35281 0.53058,-1.03436 0.70163,-1.94558 0.44295,2.57112 1.43439,5.19353 1.67245,4.68172 0.16917,-0.36369 0.26797,-0.93902 0.3077,-1.67528 0.78382,2.36258 1.83928,4.40904 1.95965,3.85489 0.0768,-0.35371 0.0917,-0.84476 0.053,-1.44774 1.05685,2.34237 2.30209,4.26842 2.32424,3.64066 0.0261,-0.73861 -0.20947,-1.93066 -0.62214,-3.40033 0.0123,0.0223 0.0245,0.0445 0.0368,0.0669 1.63105,2.96724 4.07676,5.84801 3.90088,4.94611 -0.2518,-1.29114 -1.27493,-3.52987 -2.66574,-6.12748 1.32782,1.5696 2.48496,2.75493 3.28942,3.2681 0.61431,0.39187 -0.55376,-2.07104 -2.18357,-4.43362 0.53356,0.41472 0.99773,0.71893 1.36968,0.88195 0.70466,0.30885 -1.32417,-2.92983 -3.52795,-5.23743 0.81802,0.53024 1.50172,0.8822 1.99113,0.99322 0.52638,0.11938 -0.76144,-1.67232 -2.45262,-3.38081 0.71851,0.30823 1.3092,0.48008 1.72378,0.47492 0.58414,-0.008 -1.57926,-2.31944 -3.79107,-3.83495 1.46654,0.51128 2.64177,0.75049 3.27349,0.55828 0.55739,-0.16959 -2.12006,-2.40507 -4.45412,-3.39776 -1.75055,-0.74451 -3.19682,-0.98096 -3.75831,-0.68059 z m 2.89617,5.73579 c 0.0953,0.0813 0.19434,0.16498 0.29778,0.25194 -0.0972,-0.002 -0.17177,0.0227 -0.22037,0.0776 -0.0245,-0.11821 -0.0506,-0.22746 -0.0774,-0.32948 z"
       style="fill:#96c769;fill-opacity:1;fill-rule:nonzero;stroke:none"
       inkscape:connector-curvature="0" />
    <path
       id="path2944"
       d="m 137.38339,277.51042 c 0.1863,0.10145 0.38347,0.0946 0.58197,-0.0356 0.0816,-0.0536 0.15467,-0.10943 0.22048,-0.17136 0.48017,0.39399 1.96798,0.35923 3.85363,-0.15525 2.46838,-0.67345 5.47576,-2.53104 4.95152,-2.77254 -0.52122,-0.2401 -1.50891,-0.20714 -2.77801,0.0148 2.48917,-1.19359 5.15157,-3.30094 4.55949,-3.38763 -0.48483,-0.071 -1.25411,0.0711 -2.21728,0.37017 2.27535,-1.58213 4.33818,-3.62628 3.72932,-3.57157 -0.43264,0.0389 -1.03637,0.23502 -1.76755,0.5552 1.91073,-1.75435 3.38584,-3.57432 2.79229,-3.4055 -0.37887,0.10776 -0.86095,0.33062 -1.42576,0.64962 1.76071,-1.96249 3.02864,-3.87629 2.41081,-3.59395 -0.7269,0.3322 -1.76741,1.08981 -2.9918,2.12136 0.0157,-0.0204 0.0314,-0.0407 0.0471,-0.0613 2.0907,-2.71916 3.70841,-6.04682 2.92006,-5.47547 -1.12857,0.81791 -2.80513,2.70396 -4.65311,5.05484 0.88369,-1.80933 1.47723,-3.29883 1.58916,-4.18579 0.0855,-0.67729 -1.73867,1.43152 -3.24508,3.86071 0.14618,-0.62382 0.2186,-1.13946 0.19853,-1.51407 -0.038,-0.70969 -2.20119,2.45649 -3.38009,5.31725 0.12196,-0.90594 0.13565,-1.61952 0.009,-2.06295 -0.13609,-0.47695 -1.25373,1.40661 -2.0981,3.57214 -0.0453,-0.72044 -0.16131,-1.27375 -0.36445,-1.60198 -0.28622,-0.46247 -1.48882,2.36824 -1.89771,4.85684 -0.20633,-1.41418 -0.5366,-2.46595 -1.02445,-2.878 -0.43044,-0.36356 -1.3132,2.84056 -1.15792,5.17681 0.11644,1.75219 0.57892,3.01884 1.13784,3.32316 z m 4.16409,-5.05146 c 0.0331,-0.11492 0.0667,-0.23386 0.10137,-0.35794 0.0443,0.0786 0.10404,0.12619 0.18034,0.13874 -0.10264,0.0761 -0.19587,0.14902 -0.28171,0.2192 z"
       style="fill:#96c769;fill-opacity:1;fill-rule:nonzero;stroke:none"
       inkscape:connector-curvature="0" />
    <path
       id="path2946"
       d="m 133.92611,276.86812 c 0.18379,-0.10514 0.26607,-0.26799 0.22784,-0.48759 -0.0157,-0.0903 -0.0376,-0.17474 -0.0688,-0.25603 0.60394,-0.21112 1.24166,-1.43229 1.5877,-3.19243 0.453,-2.30407 -0.0141,-5.57961 -0.48805,-5.2639 -0.47129,0.31387 -0.88493,1.12902 -1.23998,2.25751 -0.0486,-2.55582 -0.91687,-5.66461 -1.26942,-5.22405 -0.28869,0.36077 -0.49646,1.04824 -0.63759,1.96367 -0.52697,-2.55802 -1.60386,-5.1525 -1.82505,-4.63448 -0.15719,0.3681 -0.2371,0.94585 -0.25271,1.68285 -0.86084,-2.34037 -1.98286,-4.35741 -2.08503,-3.80026 -0.0652,0.35563 -0.064,0.84686 -0.006,1.44854 -1.13308,-2.3128 -2.44086,-4.20436 -2.44245,-3.57628 -0.002,0.73897 0.27262,1.92414 0.73323,3.38202 -0.0129,-0.022 -0.026,-0.0438 -0.0389,-0.0658 -1.72751,-2.92188 -4.26649,-5.73533 -4.06114,-4.83856 0.29397,1.28376 1.38996,3.49387 2.86524,6.05277 -1.37864,-1.53305 -2.57409,-2.6866 -3.395,-3.17782 -0.62687,-0.3751 0.62134,2.05517 2.3278,4.3727 -0.54689,-0.40015 -1.02083,-0.69168 -1.39795,-0.84458 -0.71447,-0.28969 1.41954,2.89277 3.69793,5.13983 -0.83503,-0.50792 -1.52996,-0.84125 -2.02278,-0.939 -0.53006,-0.10512 0.81587,1.65101 2.56225,3.31307 -0.72828,-0.28869 -1.32433,-0.44451 -1.73856,-0.42815 -0.58364,0.0231 1.65452,2.27575 3.91499,3.73086 -1.48264,-0.47145 -2.66518,-0.67881 -3.29034,-0.46962 -0.55158,0.18457 2.1979,2.34675 4.56344,3.27596 1.77416,0.6969 3.22753,0.89419 3.77893,0.57878 z m -3.08275,-5.65503 c -0.098,-0.0787 -0.19965,-0.15965 -0.30591,-0.24378 0.0972,-3.9e-4 0.17097,-0.0273 0.21775,-0.0835 0.0284,0.1175 0.058,0.226 0.0882,0.32725 z"
       style="fill:#96c769;fill-opacity:1;fill-rule:nonzero;stroke:none"
       inkscape:connector-curvature="0" />
    <path
       transform="matrix(0.15820636,0,0,0.16128562,66.715079,236.64696)"
       d="m 357.59399,566.47882 a 32.829956,51.51778 0 1 1 -65.65991,0 32.829956,51.51778 0 1 1 65.65991,0 z"
       sodipodi:ry="51.51778"
       sodipodi:rx="32.829956"
       sodipodi:cy="566.47882"
       sodipodi:cx="324.76404"
       id="path15784"
       style="fill:#ce0603;fill-opacity:1;stroke:#000000;stroke-width:2.50000072;stroke-linecap:round;stroke-linejoin:round;stroke-miterlimit:4;stroke-opacity:1;stroke-dasharray:none;stroke-dashoffset:0"
       sodipodi:type="arc" />
    <path
       transform="matrix(0.15820636,0,0,0.16128562,103.95141,270.37206)"
       d="m 72.730987,335.65897 a 5.5558391,7.5761442 0 1 1 -11.111678,0 5.5558391,7.5761442 0 1 1 11.111678,0 z"
       sodipodi:ry="7.5761442"
       sodipodi:rx="5.5558391"
       sodipodi:cy="335.65897"
       sodipodi:cx="67.175148"
       id="path18836"
       style="fill:#121212;fill-opacity:1;stroke:#000000;stroke-width:2.50000072;stroke-linecap:round;stroke-linejoin:round;stroke-miterlimit:4;stroke-opacity:1;stroke-dasharray:60.000017, 2.5000007;stroke-dashoffset:0"
       sodipodi:type="arc" />
    <path
       transform="matrix(0.15820636,0,0,0.16128562,133.3569,279.16989)"
       d="m 72.730987,335.65897 a 5.5558391,7.5761442 0 1 1 -11.111678,0 5.5558391,7.5761442 0 1 1 11.111678,0 z"
       sodipodi:ry="7.5761442"
       sodipodi:rx="5.5558391"
       sodipodi:cy="335.65897"
       sodipodi:cx="67.175148"
       id="path14124"
       style="fill:#121212;fill-opacity:1;stroke:#000000;stroke-width:2.50000072;stroke-linecap:round;stroke-linejoin:round;stroke-miterlimit:4;stroke-opacity:1;stroke-dasharray:60.000017, 2.5000007;stroke-dashoffset:0"
       sodipodi:type="arc" />
    <path
       transform="matrix(0.15820636,0,0,0.16128562,95.481357,236.8099)"
       d="m 357.59399,566.47882 a 32.829956,51.51778 0 1 1 -65.65991,0 32.829956,51.51778 0 1 1 65.65991,0 z"
       sodipodi:ry="51.51778"
       sodipodi:rx="32.829956"
       sodipodi:cy="566.47882"
       sodipodi:cx="324.76404"
       id="path15020"
       style="fill:#ce0603;fill-opacity:1;stroke:#000000;stroke-width:2.50000072;stroke-linecap:round;stroke-linejoin:round;stroke-miterlimit:4;stroke-opacity:1;stroke-dasharray:none;stroke-dashoffset:0"
       sodipodi:type="arc" />
    <path
       transform="matrix(0.15820636,0,0,0.16128562,138.79053,269.88328)"
       d="m 72.730987,335.65897 a 5.5558391,7.5761442 0 1 1 -11.111678,0 5.5558391,7.5761442 0 1 1 11.111678,0 z"
       sodipodi:ry="7.5761442"
       sodipodi:rx="5.5558391"
       sodipodi:cy="335.65897"
       sodipodi:cx="67.175148"
       id="path18834"
       style="fill:#121212;fill-opacity:1;stroke:#000000;stroke-width:2.50000072;stroke-linecap:round;stroke-linejoin:round;stroke-miterlimit:4;stroke-opacity:1;stroke-dasharray:60.000017, 2.5000007;stroke-dashoffset:0"
       sodipodi:type="arc" />
    <path
       transform="matrix(0.15820636,0,0,0.16128562,140.06903,275.58558)"
       d="m 72.730987,335.65897 a 5.5558391,7.5761442 0 1 1 -11.111678,0 5.5558391,7.5761442 0 1 1 11.111678,0 z"
       sodipodi:ry="7.5761442"
       sodipodi:rx="5.5558391"
       sodipodi:cy="335.65897"
       sodipodi:cx="67.175148"
       id="path18832"
       style="fill:#121212;fill-opacity:1;stroke:#000000;stroke-width:2.50000072;stroke-linecap:round;stroke-linejoin:round;stroke-miterlimit:4;stroke-opacity:1;stroke-dasharray:60.000017, 2.5000007;stroke-dashoffset:0"
       sodipodi:type="arc" />
    <path
       transform="matrix(0.27735082,0,0,0.16128562,45.726865,250.82128)"
       d="m 374.7666,492.73767 a 22.223356,47.477169 0 1 1 -44.44671,0 22.223356,47.477169 0 1 1 44.44671,0 z"
       sodipodi:ry="47.477169"
       sodipodi:rx="22.223356"
       sodipodi:cy="492.73767"
       sodipodi:cx="352.54324"
       id="path18844"
       style="fill:url(#radialGradient3365);fill-opacity:1;stroke:#000000;stroke-width:2.50000072;stroke-linecap:round;stroke-linejoin:round;stroke-miterlimit:4;stroke-opacity:1;stroke-dasharray:none;stroke-dashoffset:0"
       sodipodi:type="arc" />
    <path
       id="path20376"
       d="m 140.22885,331.43325 c -0.21309,0 -0.21309,0 0,0 8.00814,0 -5.3704,0.34195 -7.35138,-0.16293 -0.073,-0.0186 -0.10654,-0.10862 -0.15981,-0.16292"
       style="fill:none;stroke:#000000;stroke-width:0.15973857px;stroke-linecap:butt;stroke-linejoin:miter;stroke-opacity:1"
       inkscape:connector-curvature="0" />
    <path
       transform="matrix(0.15820636,0,0,0.16128562,94.202843,238.76497)"
       d="m 357.59399,566.47882 a 32.829956,51.51778 0 1 1 -65.65991,0 32.829956,51.51778 0 1 1 65.65991,0 z"
       sodipodi:ry="51.51778"
       sodipodi:rx="32.829956"
       sodipodi:cy="566.47882"
       sodipodi:cx="324.76404"
       id="path15780"
       style="fill:#ce0603;fill-opacity:1;stroke:#000000;stroke-width:2.50000072;stroke-linecap:round;stroke-linejoin:round;stroke-miterlimit:4;stroke-opacity:1;stroke-dasharray:none;stroke-dashoffset:0"
       sodipodi:type="arc" />
    <path
       sodipodi:type="arc"
       style="fill:#121212;fill-opacity:1;stroke:#000000;stroke-width:2.50000072;stroke-linecap:round;stroke-linejoin:round;stroke-miterlimit:4;stroke-opacity:1;stroke-dasharray:none;stroke-dashoffset:0"
       id="path14078"
       sodipodi:cx="193.9493"
       sodipodi:cy="448.79605"
       sodipodi:rx="40.406101"
       sodipodi:ry="38.890873"
       d="m 234.3554,448.79605 a 40.406101,38.890873 0 1 1 -80.81221,0 40.406101,38.890873 0 1 1 80.81221,0 z"
       transform="matrix(0.13322054,0,0,0.14099169,117.98659,255.69311)" />
    <path
       sodipodi:type="arc"
       style="fill:#121212;fill-opacity:1;stroke:#000000;stroke-width:2.50000072;stroke-linecap:round;stroke-linejoin:round;stroke-miterlimit:4;stroke-opacity:1;stroke-dasharray:60.000017, 2.5000007;stroke-dashoffset:0"
       id="path14092"
       sodipodi:cx="83.842659"
       sodipodi:cy="460.91788"
       sodipodi:rx="4.0406103"
       sodipodi:ry="1.5152289"
       d="m 87.883269,460.91788 a 4.0406103,1.5152289 0 1 1 -8.08122,0 4.0406103,1.5152289 0 1 1 8.08122,0 z"
       transform="matrix(0.15820636,0,0,0.16128562,125.84571,234.20312)" />
    <g
       id="g14999"
       transform="matrix(0.15820636,0,0,0.16128562,73.906641,248.8662)">
      <path
         sodipodi:type="arc"
         style="fill:#121212;fill-opacity:1;stroke:#000000;stroke-width:2.50000072;stroke-linecap:round;stroke-linejoin:round;stroke-miterlimit:4;stroke-opacity:1;stroke-dasharray:60.000017, 2.5000007;stroke-dashoffset:0"
         id="path14084"
         sodipodi:cx="83.842659"
         sodipodi:cy="460.91788"
         sodipodi:rx="4.0406103"
         sodipodi:ry="1.5152289"
         d="m 87.883269,460.91788 c 0,0.83683 -1.809043,1.51523 -4.04061,1.51523 -2.231567,0 -4.04061,-0.6784 -4.04061,-1.51523 0,-0.83684 1.809043,-1.51523 4.04061,-1.51523 2.231567,0 4.04061,0.67839 4.04061,1.51523 z"
         transform="translate(354.5635,-95.96458)" />
      <path
         style="fill:none;stroke:#000000;stroke-width:1px;stroke-linecap:butt;stroke-linejoin:miter;stroke-opacity:1"
         d="m 429.31484,401.82395 c 1.35022,-2.70044 -5.19142,-14.70474 -6.06092,-18.18275 -1.19495,-4.77981 -4.14611,-9.30237 -6.06091,-13.13198 -0.54294,-1.08588 -2.02031,-1.34687 -3.03046,-2.02031"
         id="path14100"
         inkscape:connector-curvature="0" />
      <path
         style="fill:none;stroke:#000000;stroke-width:1px;stroke-linecap:butt;stroke-linejoin:miter;stroke-opacity:1"
         d="m 458.60926,411.92547 c -2.15328,-4.30654 -5.10527,-6.27894 -7.07107,-14.14213 -1.25364,-5.01454 -0.86435,-10.52847 -2.02031,-15.15229 -1.2317,-4.92682 -1.94258,-7.77035 -3.03046,-12.12183 -0.19616,-0.78467 -3.72912,-2.79684 -4.04061,-3.03046"
         id="path14102"
         inkscape:connector-curvature="0" />
      <path
         sodipodi:type="arc"
         style="fill:#bbfbe3;fill-opacity:1;stroke:none"
         id="path14896"
         sodipodi:cx="67.175148"
         sodipodi:cy="335.65897"
         sodipodi:rx="5.5558391"
         sodipodi:ry="7.5761442"
         d="m 72.730987,335.65897 c 0,4.18418 -2.487434,7.57614 -5.555839,7.57614 -3.068405,0 -5.555839,-3.39196 -5.555839,-7.57614 0,-4.18419 2.487434,-7.57615 5.555839,-7.57615 3.068405,0 5.555839,3.39196 5.555839,7.57615 z"
         transform="matrix(1.636364,0,0,1,337.5747,100.0051)" />
      <path
         sodipodi:type="arc"
         style="fill:#121212;fill-opacity:1;stroke:#000000;stroke-width:2.50000072;stroke-linecap:round;stroke-linejoin:round;stroke-miterlimit:4;stroke-opacity:1;stroke-dasharray:60.000017, 2.5000007;stroke-dashoffset:0"
         id="path14898"
         sodipodi:cx="83.842659"
         sodipodi:cy="460.91788"
         sodipodi:rx="4.0406103"
         sodipodi:ry="1.5152289"
         d="m 87.883269,460.91788 c 0,0.83683 -1.809043,1.51523 -4.04061,1.51523 -2.231567,0 -4.04061,-0.6784 -4.04061,-1.51523 0,-0.83684 1.809043,-1.51523 4.04061,-1.51523 2.231567,0 4.04061,0.67839 4.04061,1.51523 z"
         transform="matrix(0,-0.522667,1.636364,0,-305.9053,479.991)" />
      <path
         sodipodi:type="arc"
         style="fill:#bbfbe3;fill-opacity:1;stroke:none"
         id="path14902"
         sodipodi:cx="67.175148"
         sodipodi:cy="335.65897"
         sodipodi:rx="5.5558391"
         sodipodi:ry="7.5761442"
         d="m 72.730987,335.65897 c 0,4.18418 -2.487434,7.57614 -5.555839,7.57614 -3.068405,0 -5.555839,-3.39196 -5.555839,-7.57614 0,-4.18419 2.487434,-7.57615 5.555839,-7.57615 3.068405,0 5.555839,3.39196 5.555839,7.57615 z"
         transform="matrix(1.818182,0,0,1,308.1884,98.99495)" />
      <path
         sodipodi:type="arc"
         style="fill:#121212;fill-opacity:1;stroke:#000000;stroke-width:2.50000072;stroke-linecap:round;stroke-linejoin:round;stroke-miterlimit:4;stroke-opacity:1;stroke-dasharray:60.000017, 2.5000007;stroke-dashoffset:0"
         id="path14904"
         sodipodi:cx="83.842659"
         sodipodi:cy="460.91788"
         sodipodi:rx="4.0406103"
         sodipodi:ry="1.5152289"
         d="m 87.883269,460.91788 c 0,0.83683 -1.809043,1.51523 -4.04061,1.51523 -2.231567,0 -4.04061,-0.6784 -4.04061,-1.51523 0,-0.83684 1.809043,-1.51523 4.04061,-1.51523 2.231567,0 4.04061,0.67839 4.04061,1.51523 z"
         transform="matrix(0,-0.522667,1.818182,0,-406.7893,478.9809)" />
    </g>
    <path
       transform="matrix(0.27735082,0,0,0.16128562,24.631613,250.00666)"
       d="m 374.7666,492.73767 a 22.223356,47.477169 0 1 1 -44.44671,0 22.223356,47.477169 0 1 1 44.44671,0 z"
       sodipodi:ry="47.477169"
       sodipodi:rx="22.223356"
       sodipodi:cy="492.73767"
       sodipodi:cx="352.54324"
       id="path18838"
       style="fill:#f2d400;fill-opacity:1;stroke:#000000;stroke-width:2.50000072;stroke-linecap:round;stroke-linejoin:round;stroke-miterlimit:4;stroke-opacity:1;stroke-dasharray:none;stroke-dashoffset:0"
       sodipodi:type="arc" />
    <path
       transform="matrix(0.15820636,0,0,0.16128562,67.673955,238.11328)"
       d="m 357.59399,566.47882 a 32.829956,51.51778 0 1 1 -65.65991,0 32.829956,51.51778 0 1 1 65.65991,0 z"
       sodipodi:ry="51.51778"
       sodipodi:rx="32.829956"
       sodipodi:cy="566.47882"
       sodipodi:cx="324.76404"
       id="path15782"
       style="fill:#ce0603;fill-opacity:1;stroke:#000000;stroke-width:2.50000072;stroke-linecap:round;stroke-linejoin:round;stroke-miterlimit:4;stroke-opacity:1;stroke-dasharray:none;stroke-dashoffset:0"
       sodipodi:type="arc" />
    <path
       transform="matrix(0.13322054,0,0,0.14099169,97.530604,255.69311)"
       d="m 234.3554,448.79605 a 40.406101,38.890873 0 1 1 -80.81221,0 40.406101,38.890873 0 1 1 80.81221,0 z"
       sodipodi:ry="38.890873"
       sodipodi:rx="40.406101"
       sodipodi:cy="448.79605"
       sodipodi:cx="193.9493"
       id="path12558"
       style="fill:#121212;fill-opacity:1;stroke:#000000;stroke-width:2.50000072;stroke-linecap:round;stroke-linejoin:round;stroke-miterlimit:4;stroke-opacity:1;stroke-dasharray:none;stroke-dashoffset:0"
       sodipodi:type="arc" />
    <path
       transform="matrix(0.15820636,0,0,0.16128562,113.22054,233.55142)"
       d="m 87.883269,460.91788 a 4.0406103,1.5152289 0 1 1 -8.08122,0 4.0406103,1.5152289 0 1 1 8.08122,0 z"
       sodipodi:ry="1.5152289"
       sodipodi:rx="4.0406103"
       sodipodi:cy="460.91788"
       sodipodi:cx="83.842659"
       id="path14080"
       style="fill:#121212;fill-opacity:1;stroke:#000000;stroke-width:2.50000072;stroke-linecap:round;stroke-linejoin:round;stroke-miterlimit:4;stroke-opacity:1;stroke-dasharray:60.000017, 2.5000007;stroke-dashoffset:0"
       sodipodi:type="arc" />
    <path
       transform="matrix(0.15820636,0,0,0.16128562,108.74579,232.73682)"
       d="m 87.883269,460.91788 a 4.0406103,1.5152289 0 1 1 -8.08122,0 4.0406103,1.5152289 0 1 1 8.08122,0 z"
       sodipodi:ry="1.5152289"
       sodipodi:rx="4.0406103"
       sodipodi:cy="460.91788"
       sodipodi:cx="83.842659"
       id="path14086"
       style="fill:#121212;fill-opacity:1;stroke:#000000;stroke-width:2.50000072;stroke-linecap:round;stroke-linejoin:round;stroke-miterlimit:4;stroke-opacity:1;stroke-dasharray:60.000017, 2.5000007;stroke-dashoffset:0"
       sodipodi:type="arc" />
    <path
       id="path14096"
       d="m 121.21116,313.83755 c -0.69478,-0.44438 -0.68474,-1.6067 -0.47945,-2.44385 0.21855,-0.89119 0.44226,-1.15175 0.63925,-1.95507 0.18473,-0.75328 0.40889,-1.4854 0.63926,-1.95508 0.10427,-0.2126 0.25705,-0.65513 0.31962,-0.81461"
       style="fill:none;stroke:#000000;stroke-width:0.15973857px;stroke-linecap:butt;stroke-linejoin:miter;stroke-opacity:1"
       inkscape:connector-curvature="0" />
    <path
       id="path14098"
       d="m 125.20646,313.67463 c 0.31795,-0.64827 0.18038,-1.87602 0.31963,-2.44385 0.17135,-0.69876 0.56068,-1.3061 0.79906,-1.79215 0.20109,-0.41001 0.192,-0.94585 0.31963,-1.46631"
       style="fill:none;stroke:#000000;stroke-width:0.15973857px;stroke-linecap:butt;stroke-linejoin:miter;stroke-opacity:1"
       inkscape:connector-curvature="0" />
    <path
       transform="matrix(0.28764794,0,0,0.16128562,105.56406,264.34389)"
       d="m 72.730987,335.65897 a 5.5558391,7.5761442 0 1 1 -11.111678,0 5.5558391,7.5761442 0 1 1 11.111678,0 z"
       sodipodi:ry="7.5761442"
       sodipodi:rx="5.5558391"
       sodipodi:cy="335.65897"
       sodipodi:cx="67.175148"
       id="path14908"
       style="fill:#bbfbe3;fill-opacity:1;stroke:none"
       sodipodi:type="arc" />
    <path
       transform="matrix(0,-0.08429869,0.28764794,0,-7.5499831,325.63016)"
       d="m 87.883269,460.91788 a 4.0406103,1.5152289 0 1 1 -8.08122,0 4.0406103,1.5152289 0 1 1 8.08122,0 z"
       sodipodi:ry="1.5152289"
       sodipodi:rx="4.0406103"
       sodipodi:cy="460.91788"
       sodipodi:cx="83.842659"
       id="path14910"
       style="fill:#121212;fill-opacity:1;stroke:#000000;stroke-width:2.50000072;stroke-linecap:round;stroke-linejoin:round;stroke-miterlimit:4;stroke-opacity:1;stroke-dasharray:60.000017, 2.5000007;stroke-dashoffset:0"
       sodipodi:type="arc" />
    <path
       transform="matrix(0.30203038,0,0,0.18279036,101.80121,257.12562)"
       d="m 72.730987,335.65897 a 5.5558391,7.5761442 0 1 1 -11.111678,0 5.5558391,7.5761442 0 1 1 11.111678,0 z"
       sodipodi:ry="7.5761442"
       sodipodi:rx="5.5558391"
       sodipodi:cy="335.65897"
       sodipodi:cx="67.175148"
       id="path14914"
       style="fill:#bbfbe3;fill-opacity:1;stroke:none"
       sodipodi:type="arc" />
    <path
       transform="matrix(0,-0.09553846,0.30203038,0,-16.968475,326.58337)"
       d="m 87.883269,460.91788 a 4.0406103,1.5152289 0 1 1 -8.08122,0 4.0406103,1.5152289 0 1 1 8.08122,0 z"
       sodipodi:ry="1.5152289"
       sodipodi:rx="4.0406103"
       sodipodi:cy="460.91788"
       sodipodi:cx="83.842659"
       id="path14916"
       style="fill:#121212;fill-opacity:1;stroke:#000000;stroke-width:2.50000072;stroke-linecap:round;stroke-linejoin:round;stroke-miterlimit:4;stroke-opacity:1;stroke-dasharray:60.000017, 2.5000007;stroke-dashoffset:0"
       sodipodi:type="arc" />
    <path
       transform="matrix(0.15820636,0,0,0.16128562,110.50372,272.32713)"
       d="m 72.730987,335.65897 a 5.5558391,7.5761442 0 1 1 -11.111678,0 5.5558391,7.5761442 0 1 1 11.111678,0 z"
       sodipodi:ry="7.5761442"
       sodipodi:rx="5.5558391"
       sodipodi:cy="335.65897"
       sodipodi:cx="67.175148"
       id="path18818"
       style="fill:#121212;fill-opacity:1;stroke:#000000;stroke-width:2.50000072;stroke-linecap:round;stroke-linejoin:round;stroke-miterlimit:4;stroke-opacity:1;stroke-dasharray:60.000017, 2.5000007;stroke-dashoffset:0"
       sodipodi:type="arc" />
    <path
       transform="matrix(0.15820636,0,0,0.16128562,133.3569,273.79344)"
       d="m 72.730987,335.65897 a 5.5558391,7.5761442 0 1 1 -11.111678,0 5.5558391,7.5761442 0 1 1 11.111678,0 z"
       sodipodi:ry="7.5761442"
       sodipodi:rx="5.5558391"
       sodipodi:cy="335.65897"
       sodipodi:cx="67.175148"
       id="path18820"
       style="fill:#121212;fill-opacity:1;stroke:#000000;stroke-width:2.50000072;stroke-linecap:round;stroke-linejoin:round;stroke-miterlimit:4;stroke-opacity:1;stroke-dasharray:60.000017, 2.5000007;stroke-dashoffset:0"
       sodipodi:type="arc" />
    <path
       transform="matrix(0.15820636,0,0,0.16128562,107.7869,281.2879)"
       d="m 72.730987,335.65897 a 5.5558391,7.5761442 0 1 1 -11.111678,0 5.5558391,7.5761442 0 1 1 11.111678,0 z"
       sodipodi:ry="7.5761442"
       sodipodi:rx="5.5558391"
       sodipodi:cy="335.65897"
       sodipodi:cx="67.175148"
       id="path18822"
       style="fill:#121212;fill-opacity:1;stroke:#000000;stroke-width:2.50000072;stroke-linecap:round;stroke-linejoin:round;stroke-miterlimit:4;stroke-opacity:1;stroke-dasharray:60.000017, 2.5000007;stroke-dashoffset:0"
       sodipodi:type="arc" />
    <path
       transform="matrix(0.15820636,0,0,0.16128562,109.70466,277.70361)"
       d="m 72.730987,335.65897 a 5.5558391,7.5761442 0 1 1 -11.111678,0 5.5558391,7.5761442 0 1 1 11.111678,0 z"
       sodipodi:ry="7.5761442"
       sodipodi:rx="5.5558391"
       sodipodi:cy="335.65897"
       sodipodi:cx="67.175148"
       id="path18824"
       style="fill:#121212;fill-opacity:1;stroke:#000000;stroke-width:2.50000072;stroke-linecap:round;stroke-linejoin:round;stroke-miterlimit:4;stroke-opacity:1;stroke-dasharray:60.000017, 2.5000007;stroke-dashoffset:0"
       sodipodi:type="arc" />
    <path
       transform="matrix(0.15820636,0,0,0.16128562,106.02896,272.97883)"
       d="m 72.730987,335.65897 a 5.5558391,7.5761442 0 1 1 -11.111678,0 5.5558391,7.5761442 0 1 1 11.111678,0 z"
       sodipodi:ry="7.5761442"
       sodipodi:rx="5.5558391"
       sodipodi:cy="335.65897"
       sodipodi:cx="67.175148"
       id="path18826"
       style="fill:#121212;fill-opacity:1;stroke:#000000;stroke-width:2.50000072;stroke-linecap:round;stroke-linejoin:round;stroke-miterlimit:4;stroke-opacity:1;stroke-dasharray:60.000017, 2.5000007;stroke-dashoffset:0"
       sodipodi:type="arc" />
    <path
       transform="matrix(0.15820636,0,0,0.16128562,136.71296,275.7485)"
       d="m 72.730987,335.65897 a 5.5558391,7.5761442 0 1 1 -11.111678,0 5.5558391,7.5761442 0 1 1 11.111678,0 z"
       sodipodi:ry="7.5761442"
       sodipodi:rx="5.5558391"
       sodipodi:cy="335.65897"
       sodipodi:cx="67.175148"
       id="path18828"
       style="fill:#121212;fill-opacity:1;stroke:#000000;stroke-width:2.50000072;stroke-linecap:round;stroke-linejoin:round;stroke-miterlimit:4;stroke-opacity:1;stroke-dasharray:60.000017, 2.5000007;stroke-dashoffset:0"
       sodipodi:type="arc" />
    <path
       transform="matrix(0.15820636,0,0,0.16128562,134.4756,280.14743)"
       d="m 72.730987,335.65897 a 5.5558391,7.5761442 0 1 1 -11.111678,0 5.5558391,7.5761442 0 1 1 11.111678,0 z"
       sodipodi:ry="7.5761442"
       sodipodi:rx="5.5558391"
       sodipodi:cy="335.65897"
       sodipodi:cx="67.175148"
       id="path18830"
       style="fill:#121212;fill-opacity:1;stroke:#000000;stroke-width:2.50000072;stroke-linecap:round;stroke-linejoin:round;stroke-miterlimit:4;stroke-opacity:1;stroke-dasharray:60.000017, 2.5000007;stroke-dashoffset:0"
       sodipodi:type="arc" />
    <path
       id="path20370"
       d="m 124.40741,330.29278 c 0.81751,0.17193 2.36493,0.7623 3.51587,1.46631 0.886,0.54195 3.52084,-0.084 4.31494,-0.48877 0.35143,-0.17913 0.33445,-0.0852 0.63925,-0.16292"
       style="fill:none;stroke:#000000;stroke-width:0.15973857px;stroke-linecap:butt;stroke-linejoin:miter;stroke-opacity:1"
       inkscape:connector-curvature="0" />
    <path
       transform="matrix(0.15820636,0,0,0.16128562,119.45324,256.52358)"
       d="m 87.883269,460.91788 a 4.0406103,1.5152289 0 1 1 -8.08122,0 4.0406103,1.5152289 0 1 1 8.08122,0 z"
       sodipodi:ry="1.5152289"
       sodipodi:rx="4.0406103"
       sodipodi:cy="460.91788"
       sodipodi:cx="83.842659"
       id="path20389"
       style="fill:#121212;fill-opacity:1;stroke:#000000;stroke-width:2.50000072;stroke-linecap:round;stroke-linejoin:round;stroke-miterlimit:4;stroke-opacity:1;stroke-dasharray:60.000017, 2.5000007;stroke-dashoffset:0"
       sodipodi:type="arc" />
    <path
       id="path20436"
       d="m 121.21116,336.80971 c -0.42534,0.57976 -1.43832,1.18671 -1.43832,2.28092 0,0.86934 -0.15981,1.55342 -0.15981,2.44385 0,0.72463 0.38511,1.5998 0.63925,2.118 0.20979,0.42776 0,1.61566 0,2.11799"
       style="fill:none;stroke:#000000;stroke-width:0.15973857px;stroke-linecap:butt;stroke-linejoin:miter;stroke-opacity:1"
       inkscape:connector-curvature="0" />
    <path
       id="path20438"
       d="m 124.72703,336.80971 c 0.17929,0.36554 0.15981,1.87319 0.15981,2.76969 0,0.81461 0,1.62922 0,2.44385 0,0.8813 0.49357,1.33219 0.79907,1.95507"
       style="fill:none;stroke:#000000;stroke-width:0.15973857px;stroke-linecap:butt;stroke-linejoin:miter;stroke-opacity:1"
       inkscape:connector-curvature="0" />
    <path
       id="path20440"
       d="m 141.02792,337.46139 c 0,0.40907 0,1.85679 0,2.7697 0,0.84155 -0.15498,1.6095 -0.31963,2.28093 -0.19435,0.79251 -0.46791,1.16396 0,2.11799 0.0477,0.0971 0,0.21723 0,0.32585"
       style="fill:none;stroke:#000000;stroke-width:0.15973857px;stroke-linecap:butt;stroke-linejoin:miter;stroke-opacity:1"
       inkscape:connector-curvature="0" />
    <path
       id="path20442"
       d="m 145.9821,338.60186 c 0.16254,0.3314 -0.006,2.30643 -0.15981,2.93262 -0.2138,0.87185 -0.31962,1.60384 -0.31962,2.60676 0,0.26674 0.57701,0.58825 0.63924,0.6517"
       style="fill:none;stroke:#000000;stroke-width:0.15973857px;stroke-linecap:butt;stroke-linejoin:miter;stroke-opacity:1"
       inkscape:connector-curvature="0" />
    <path
       d="m 148.11937,343.30168 c -0.66203,0.099 -0.97776,0.72981 -1.43788,1.16769 -0.54125,0.5002 -1.16788,0.46842 -1.85484,0.47533 -0.74724,-0.24387 -1.46157,-0.48456 -2.24264,-0.33251 -0.79727,0.34276 -0.86315,1.1028 -0.87165,1.88121 0.64116,1.35893 2.19951,1.80882 3.54176,1.67698 0.80627,-0.43561 1.62195,-0.85906 2.46826,-1.21189 0.83107,-0.41216 1.52168,-1.02509 2.04096,-1.79775 0.17984,-0.22561 0.14878,-0.50368 0.20235,-0.75846 l -2.01365,-0.99118 c -0.0322,0.17269 0.0789,0.44116 -0.1142,0.6108 -0.51844,0.71498 -1.12995,1.32663 -1.95107,1.68236 -0.83647,0.3564 -1.63196,0.80424 -2.46216,1.16564 -2.50669,0.0568 1.535,1.2659 0.31176,0.58673 -0.0644,-0.66068 -0.0342,-1.28568 0.67627,-1.55798 0.77025,-0.0453 1.45882,0.26502 2.21419,0.37868 0.73467,-0.0207 1.37635,-0.0612 1.94516,-0.59861 0.42427,-0.43896 0.71487,-1.03196 1.37443,-1.02376 l -1.82705,-1.35328 z"
       id="path20448"
       style="fill:#000000;fill-opacity:1;fill-rule:nonzero;stroke:none"
       inkscape:connector-curvature="0" />
    <path
       d="m 123.58211,342.32415 c 0.66204,0.099 0.97777,0.7298 1.43788,1.16768 0.54125,0.50021 1.16788,0.46842 1.85484,0.47533 0.74724,-0.24387 1.46157,-0.48457 2.24264,-0.33251 0.79727,0.34276 0.86315,1.10279 0.87165,1.88122 -0.64116,1.35892 -2.19951,1.80882 -3.54176,1.67698 -0.80626,-0.43561 -1.62194,-0.85907 -2.46826,-1.2119 -0.83107,-0.41217 -1.52168,-1.02509 -2.04096,-1.79774 -0.17984,-0.22563 -0.14878,-0.50368 -0.20235,-0.75848 l 2.01365,-0.99117 c 0.0323,0.1727 -0.0788,0.44117 0.1142,0.61081 0.51844,0.71497 1.12995,1.32662 1.95107,1.68235 0.83647,0.35639 1.63197,0.80424 2.46217,1.16564 2.50668,0.0568 -1.535,1.26589 -0.31176,0.58673 0.0644,-0.66067 0.0342,-1.28568 -0.67628,-1.55797 -0.77025,-0.0453 -1.45882,0.26501 -2.21419,0.37866 -0.73467,-0.0206 -1.37635,-0.0612 -1.94516,-0.5986 -0.42427,-0.43896 -0.71487,-1.03196 -1.37443,-1.02377 l 1.82705,-1.35326 z"
       id="path20450"
       style="fill:#000000;fill-opacity:1;fill-rule:nonzero;stroke:none"
       inkscape:connector-curvature="0" />
    <path
       d="m 117.82886,344.1163 c 0.66203,0.099 0.97776,0.7298 1.43788,1.16768 0.54125,0.50022 1.16788,0.46843 1.85485,0.47534 0.74722,-0.24388 1.46156,-0.48456 2.24263,-0.33251 0.79727,0.34276 0.86315,1.10279 0.87166,1.88121 -0.64118,1.35892 -2.19951,1.80882 -3.54178,1.67699 -0.80625,-0.43562 -1.62194,-0.85907 -2.46825,-1.2119 -0.83107,-0.41217 -1.52169,-1.0251 -2.04095,-1.79775 -0.17985,-0.22562 -0.14879,-0.50367 -0.20236,-0.75847 l 2.01365,-0.99117 c 0.0323,0.17269 -0.0789,0.44117 0.11419,0.61081 0.51846,0.71497 1.12996,1.32661 1.95107,1.68234 0.83649,0.3564 1.63197,0.80424 2.46217,1.16564 2.5067,0.0568 -1.535,1.2659 -0.31175,0.58673 0.0644,-0.66067 0.0342,-1.28568 -0.67628,-1.55797 -0.77025,-0.0453 -1.45882,0.26501 -2.21419,0.37866 -0.73467,-0.0206 -1.37635,-0.0612 -1.94516,-0.59859 -0.42427,-0.43896 -0.71487,-1.03197 -1.37443,-1.02377 l 1.82705,-1.35327 z"
       id="path20452"
       style="fill:#000000;fill-opacity:1;fill-rule:nonzero;stroke:none"
       inkscape:connector-curvature="0" />
    <path
       d="m 142.84555,343.13876 c -0.66203,0.099 -0.97775,0.7298 -1.43787,1.16768 -0.54125,0.50022 -1.16788,0.46843 -1.85485,0.47534 -0.74723,-0.24387 -1.46157,-0.48456 -2.24263,-0.33251 -0.79727,0.34276 -0.86315,1.1028 -0.87166,1.88121 0.64118,1.35892 2.19951,1.80882 3.54177,1.67698 0.80626,-0.43561 1.62194,-0.85906 2.46826,-1.21189 0.83107,-0.41216 1.52168,-1.0251 2.04095,-1.79775 0.17985,-0.22561 0.14878,-0.50367 0.20235,-0.75847 l -2.01364,-0.99117 c -0.0323,0.17269 0.0788,0.44117 -0.1142,0.61081 -0.51845,0.71497 -1.12995,1.32661 -1.95106,1.68235 -0.83649,0.3564 -1.63197,0.80424 -2.46217,1.16563 -2.5067,0.0568 1.535,1.2659 0.31175,0.58674 -0.0644,-0.66068 -0.0342,-1.28569 0.67628,-1.55798 0.77024,-0.0453 1.45881,0.26502 2.21418,0.37866 0.73468,-0.0206 1.37635,-0.0612 1.94516,-0.59859 0.42427,-0.43896 0.71488,-1.03197 1.37444,-1.02377 l -1.82706,-1.35327 z"
       id="path20454"
       style="fill:#000000;fill-opacity:1;fill-rule:nonzero;stroke:none"
       inkscape:connector-curvature="0" />
    <path
       style="fill:none;stroke:#f90006;stroke-width:0.15973857px;stroke-linecap:butt;stroke-linejoin:miter;stroke-opacity:0.92857139"
       d="m 120.57191,320.35447 c 0.83529,0.40388 1.21094,1.28043 2.71681,1.79216 0.41673,0.14161 0.85233,0.21722 1.2785,0.32584 0.84447,0.21522 1.15148,-1.02212 1.59813,-1.62924 0.79504,-1.08069 -0.26273,0.53569 0.1598,-0.32584"
       id="path20552"
       inkscape:connector-curvature="0" />
    <path
       style="fill:none;stroke:#f90006;stroke-width:0.15973857px;stroke-linecap:butt;stroke-linejoin:miter;stroke-opacity:0.92857139"
       d="m 146.60725,320.84323 c -0.83531,0.40389 -1.21095,1.28044 -2.71682,1.79217 -0.41674,0.14161 -0.85233,0.21722 -1.2785,0.32584 -0.84447,0.21522 -1.15149,-1.02212 -1.59812,-1.62924 -0.79505,-1.08069 0.26272,0.5357 -0.15982,-0.32583"
       id="path21314"
       inkscape:connector-curvature="0" />
  </g>
  <metadata
     id="metadata3091">
    <rdf:RDF>
      <cc:Work>
        <dc:format>image/svg+xml</dc:format>
        <dc:type
           rdf:resource="http://purl.org/dc/dcmitype/StillImage" />
        <cc:license
           rdf:resource="http://creativecommons.org/licenses/publicdomain/" />
        <dc:publisher>
          <cc:Agent
             rdf:about="http://openclipart.org/">
            <dc:title>Open Clip Art Library</dc:title>
          </cc:Agent>
        </dc:publisher>
        <dc:title></dc:title>
        <dc:date>2007-11-01T23:05:01</dc:date>
        <dc:description>A palm tree based on the following tutorial: http://kalaalog.com/2007/09/27/how-to-illustrate-palm-tree/ :-)</dc:description>
        <dc:source>http://openclipart.org/detail/7897/palm-tree-by-bsantos</dc:source>
        <dc:creator>
          <cc:Agent>
            <dc:title>bsantos</dc:title>
          </cc:Agent>
        </dc:creator>
        <dc:subject>
          <rdf:Bag>
            <rdf:li>clip art</rdf:li>
            <rdf:li>clipart</rdf:li>
            <rdf:li>coconut</rdf:li>
            <rdf:li>coconut</rdf:li>
            <rdf:li>image</rdf:li>
            <rdf:li>media</rdf:li>
            <rdf:li>nature</rdf:li>
            <rdf:li>nature</rdf:li>
            <rdf:li>palm</rdf:li>
            <rdf:li>palm</rdf:li>
            <rdf:li>plant</rdf:li>
            <rdf:li>plant</rdf:li>
            <rdf:li>public domain</rdf:li>
            <rdf:li>svg</rdf:li>
            <rdf:li>tree</rdf:li>
            <rdf:li>tree</rdf:li>
          </rdf:Bag>
        </dc:subject>
      </cc:Work>
      <cc:License
         rdf:about="http://creativecommons.org/licenses/publicdomain/">
        <cc:permits
           rdf:resource="http://creativecommons.org/ns#Reproduction" />
        <cc:permits
           rdf:resource="http://creativecommons.org/ns#Distribution" />
        <cc:permits
           rdf:resource="http://creativecommons.org/ns#DerivativeWorks" />
      </cc:License>
    </rdf:RDF>
  </metadata>
</svg>
